<?xml version="1.0" encoding="UTF-8" standalone="no"?>
<svg id="svg4168" xmlns:rdf="http://www.w3.org/1999/02/22-rdf-syntax-ns#" xmlns="http://www.w3.org/2000/svg" height="27.791mm" viewBox="0 0 97.808596 98.469556" width="27.605mm" version="1.1" xmlns:cc="http://creativecommons.org/ns#" xmlns:dc="http://purl.org/dc/elements/1.1/">
 <g id="layer1" transform="translate(-26.507 -82.205)">
  <path id="path4792" fill="#f7dcc4" d="m64.581 178.25 3.9458-2.4265-0.0075-4.1521c-0.006-3.6014-0.35348-4.5876-2.6179-7.4361-1.4358-1.8062-3.3778-4.8934-4.3158-6.8607-1.1478-2.4075-1.9666-3.643-2.6372-4.1042-0.3026-0.20809-2.6285 2.4777-4.1552 0.47518 0 0-1.8405-1.9163-2.3684-3.1066-1.1652-2.6268-1.2761-5.7598-1.574-8.4758-4.9648-45.282 50.983-59.786 60.965-21.257 2.894 11.17 3.8116 25.679-10.881 45.469-3.6488 3.8787-10.303 7.5157-13.773 7.5282-1.2664 0.004-2.3466 0.57808-2.8459 1.511-0.4426 0.82702-0.4979 1.5037-0.12288 1.5037 0.37503 0 2.5015 0.82634 4.7256 1.8363l4.0436 1.8363-16.163 0.0433-16.163 0.0433 3.9458-2.4265zm37.541-43.577c-0.24001-0.59977-0.41817-0.42163-0.45424 0.45423-0.0326 0.79257 0.14505 1.2366 0.39489 0.9868 0.24984-0.24985 0.27654-0.89831 0.0593-1.441z"/>
  <g id="g5" transform="matrix(.24046 0 0 .24046 20.129 62.438)">
   <path id="path6006" opacity="0.443" style="color:#000000" d="m249.24 287.93c29.933 18.504 27.244 49.874-2.6041 65.847-19.723 6.2731-41.471 3.6034-55.802-9.6724-4.3788-4.1317-7.6877-9.5688-9.6724-15.253-7.855-45.639 51.947-49.978 68.079-40.922z" fill-rule="evenodd" fill="#fff"/>
   <path id="path4940" opacity="0.765" fill="#383737" d="m239.49 350.18c-1.5187-0.78525-4.2293-4.1476-5.5596-6.8964-0.97244-2.0094-1.8828-5.3561-2.355-8.6577-0.42097-2.9435-0.60979-15.146-0.2939-18.986 0.51114-6.2109 1.4004-10.216 2.9946-13.485 0.80074-1.6422 1.266-2.3131 2.3691-3.4162 5.1609-5.1608 9.4454-1.6677 12.507 10.197 1.5612 6.0496 2.4434 16.378 1.9136 22.405-0.22168 2.5212-1.1609 7.6031-1.733 9.3764-0.79954 2.4782-1.8412 4.0425-4.3071 6.5411-1.7434 1.7665-4.1321 3.6475-5.5361 2.9215z"/>
   <path id="path4782-3" fill="#41200a" d="m259.42 277.75c-5.8341-7.3635-26.076-13.509-42.622-12.94-8.9056 0.30641-6.5884 1.2823 8.4215 3.5474 11.389 1.7187 24.816 5.8892 29.838 9.2678 8.3117 5.5923 8.7028 5.6035 4.3623 0.12537z"/>
  </g>
  <path id="path4782" fill="#41200a" d="m52.925 150.45c-0.5169-1.9405-0.9398-4.5825-0.9398-5.8712 0-1.3705-0.31205-2.15-0.75183-1.8782-0.4135 0.25557-0.75703 1.7134-0.76335 3.2398-0.02301 5.5396-1.1938 4.8559-3.2487-1.8969-1.1056-3.6332-2.2249-8.2219-2.4874-10.198-0.26247-1.9755-0.75118-3.7611-1.0861-3.9681-0.88197-0.54508-1.7516 4.5135-1.7843 10.379-0.01556 2.7913-0.10599 5.075-0.20097 5.075-0.09497 0-0.87707-1.3807-1.738-3.0683-2.0804-4.078-4.4801-13.636-4.4801-17.844 0-3.2426-0.05646-3.3285-1.3932-2.1187-1.9627 1.7762-5.4078 8.322-6.5392 12.424-0.93675 3.3968-0.95637 3.3107-1.0095-4.4303-0.09464-13.79 3.134-23.532 10.561-31.864 4.7109-5.2856 14.146-10.274 19.823-10.481 3.7128-0.13498 4.1723 0.26141 5.2195 4.5039 0.01714 0.06947 1.8915-0.39037 4.1653-1.0219 4.4719-1.242 18.904-1.6436 24.999-0.69561 4.614 0.71776 4.5902-0.09288-0.14105-4.8242l-3.7123-3.7123 3.7392 1.8949c5.1115 2.5903 9.6633 6.8554 11.335 10.622 1.098 2.4734 1.9908 3.3314 4.2026 4.0383 8.2178 2.6268 14.537 8.9734 17.071 17.143l0.54789 1.767-3.336-1.955c-4.8052-2.8161-5.1168-2.622-3.7996 2.3681 1.3467 5.1022 1.5796 12.768 0.44921 14.788-0.78505 1.4028-0.81313 1.4027-1.5443-0.008-0.40961-0.78978-1.3019-3.9734-1.9829-7.0747-1.3527-6.1602-4.3238-11.974-7.8016-15.267l-2.2286-2.11-0.52794 3.9895c-0.70655 5.3395-2.6689 9.563-5.9839 12.878-2.3962 2.3962-7.2262 5.5828-7.2262 4.7677 0-0.1605 1.0486-1.6071 2.3303-3.2145 1.2817-1.6075 2.9733-4.178 3.7592-5.7122 1.4292-2.7899 1.9675-8.1123 0.82056-8.1123-0.99297 0-16.333 17.51-16.333 17.51s-3.6702-1.1781-6.1946-0.93442c0.46056-0.55493 7.7347-12.339 7.4628-12.611-1.449-1.449-10.106 10.139-16.284 15.785-3.7241 3.4035-7.784 6.9215-9.0222 7.8177-2.096 1.5174-2.2769 2.0351-2.6271 7.5183l-0.37592 5.889-0.9398-3.5283zm46.32-21.89c1.2495-1.5249 5.585-2.7976 9.1287-2.6797 1.9074 0.0635 1.4111 0.26554-1.8037 0.73461-2.4393 0.35591-5.3152 1.2196-6.3906 1.9192-1.7802 1.1581-1.8639 1.1604-0.93431 0.0259z"/>
  <path id="path4780" fill="#341908" d="m55.318 130.41c0.75142-12.06 10.451-22.151 25.989-27.038 8.3145-2.6146 10.552-2.573 2.975 0.0552-8.881 3.0806-13.421 5.6951-18.833 10.845-4.9935 4.752-7.8153 9.6385-9.3232 16.145l-1.1054 4.7701 0.29774-4.7785zm-13.061-5.372c-0.55985-1.8608-1.0307-5.9592-1.0463-9.1073-0.02353-4.7366 0.32354-6.4435 2.0121-9.8946 1.1223-2.2938 3.3715-5.3732 4.9985-6.8429 3.2944-2.9762 9.759-6.5031 11.821-6.4492 0.74609 0.01948-0.16762 0.82111-2.0601 1.8074-1.8705 0.97481-4.9504 3.429-6.8443 5.454-4.7376 5.0649-6.719 10.592-7.3563 20.522l-0.5069 7.8944-1.0179-3.3833zm74.587-2.3157c-1.8769-7.9012-6.721-14.95-12.669-18.436-4.5662-2.6759-4.1954-3.1248 0.47932-0.58063 6.8746 3.7416 11.988 11.235 13.148 19.265 0.67652 4.685 0.18311 4.5568-0.95846-0.24888zm-65.603-2.5768c0.01601-1.6881 4.652-8.6692 7.9418-11.959 6.284-6.284 14.94-9.5368 24.982-9.3875 7.9632 0.11846 9.9761 1.2651 2.3765 1.3538-14.367 0.16769-25.48 5.7-32.244 16.05-1.6848 2.5785-3.0601 4.3526-3.0563 3.9426z"/>
  <g id="g12" fill="none" stroke="#f8ae5c" transform="matrix(.24046 0 0 .24046 20.129 62.438)">
   <path id="path4822" style="color:#000000" stroke-width="4.6868" d="m250.7 286.49c31.766 19.637 28.913 52.929-2.7636 69.879-20.931 6.6573-44.011 3.824-59.22-10.265-4.6469-4.3847-8.1585-10.155-10.265-16.187-8.3361-48.434 55.128-53.038 72.248-43.428z"/>
   <path id="path4881" style="color:#000000" stroke-width="4.6868" d="m331.48 280.23c-31.766 19.637-28.913 52.929 2.7636 69.879 20.931 6.6573 44.011 3.824 59.22-10.265 4.6469-4.3847 8.1586-10.155 10.265-16.187 8.3361-48.434-55.128-53.038-72.248-43.428z"/>
   <path id="path4885" style="color:#000000" stroke-width="3.1242" d="m272.41 314.12c15.702-9.224 25.686-5.8704 36.321-3.948"/>
  </g>
  <g id="g17" transform="matrix(.24046 0 0 .24046 20.129 62.438)">
   <path id="path4902" style="color:#000000" fill-rule="evenodd" fill="#796253" d="m222.27 285.7c15.471-2.8568 20.403-0.2667 26.451 3.1584 0 0-18.186 13.006-52.113 25.662-9.7608 3.6412 25.662-28.82 25.662-28.82z"/>
   <path id="path4908" opacity="0.765" fill="#c8b39f" d="m336.53 343.79c-4.8258-3.0604-7.7463-9.7872-8.7243-20.095-0.81517-8.5916 0.69662-19.401 3.573-25.548 4.6155-9.8632 12.248-8.3769 16.156 3.1459 1.8747 5.5287 2.2679 8.6172 2.2364 17.569-0.0281 7.8218-0.10974 8.785-1.0457 12.269-1.2627 4.7002-2.9984 8.1902-5.2935 10.644-1.5792 1.6883-3.7854 3.1432-4.7663 3.1432-0.19604 0-1.1569-0.50761-2.1352-1.128zm4.148-2.8573c2.125-1.6715 3.5057-6.1003 2.6234-8.4147-0.24075-0.63151-0.95681-1.7394-1.5912-2.4619-1.6587-1.8892-2.314-4.5835-2.9627-12.182-0.80877-9.4728-1.7236-14.01-3.3687-16.707-2.4468-4.0117-4.4392 2.0924-4.4222 13.549 0.0125 9.2541 1.4162 16.444 4.4684 22.908 1.9418 4.1123 3.2133 4.9131 5.2532 3.3086zm3.398-34.705c0.45346-0.45345 0.7896-1.316 0.7896-2.0261 0-3.2152-4.3007-6.5824-5.5133-4.3166-0.96694 1.8068-0.14132 6.3039 1.2609 6.8681 1.1349 0.45661 2.7215 0.21605 3.4628-0.52534z"/>
   <path id="path4910" opacity="0.765" fill="#e7788f" d="m223.58 378.73c-3.4782-0.47487-7.1177-1.7067-9.469-3.2048-5.8777-3.745-4.8073-9.4587 2.357-12.582 1.4437-0.62936 2.376-0.69539 7.1064-0.50326 2.9946 0.12163 7.1137 0.0281 9.1536-0.20479 3.446-0.39574 3.8519-0.36585 5.7246 0.42153 4.2832 1.8008 6.9506 4.6086 6.9506 7.3161 0 1.1658-1.4883 3.7649-2.7156 4.7424-3.9466 3.1435-12.432 4.9263-19.108 4.0148z"/>
   <path id="path4912" opacity="0.765" fill="#e7788f" d="m345.85 373.44c-5.6324-1.185-9.9382-4.028-10.885-7.187-0.39167-1.3073-0.34468-1.7766 0.33086-3.3037 2.3625-5.3408 13.495-8.4007 23.303-6.4049 7.0724 1.4392 11.136 4.5581 11.136 8.5466 0 1.692-0.18853 2.1118-1.6779 3.7373-3.9821 4.346-13.79 6.3827-22.207 4.6117z"/>
   <path id="path4914" opacity="0.765" fill="#ed1921" d="m283.29 417.58c-4.2028-0.89887-8.613-2.8852-11.876-5.3491-1.3072-0.98692-12.411-12.783-12.411-13.185 0-0.07 1.7273 0.4281 3.8385 1.1068 10.858 3.4906 13.903 4.2285 20.449 4.9558 11.746 1.3051 17.561 0.66107 25.683-2.8444 1.7657-0.76208 3.9013-1.712 4.7458-2.1109 0.84448-0.39893 2.0041-0.72654 2.577-0.72804 0.87323-0.002 1.0693 0.10756 1.213 0.68036 0.63639 2.5357-4.0172 9.255-8.5644 12.366-3.3542 2.295-8.6293 4.4058-13.053 5.2234-3.2529 0.60113-9.5192 0.54372-12.601-0.11537z"/>
  </g>
  <g id="g24" fill="#fff" transform="matrix(.24046 0 0 .24046 20.129 62.438)">
   <path id="path4920" d="m244.3 312.38c-0.96022-0.31332-1.6996-1.2527-2.0632-2.6212-0.18416-0.69317-0.2295-2.6211-0.0772-3.2899 0.13882-0.60963 0.24982-0.83281 0.66826-1.343 0.37563-0.45793 0.60115-0.56911 1.1338-0.55885 1.0985 0.0219 2.7592 1.4907 3.6101 3.1948 0.45196 0.90507 0.58515 1.4371 0.5461 2.1814-0.0356 0.6782-0.13913 0.86868-0.85585 1.5749-0.67232 0.66247-1.1974 0.90613-2.021 0.93774-0.42256 0.0156-0.73573-0.009-0.9408-0.076z"/>
   <path id="path4922" opacity="0.765" d="m341.12 306.89c-0.61748-0.12725-0.68492-0.23356-0.35613-0.56011 1.0933-1.0861 1.0966-4.1186 0.006-6.4186l-0.33902-0.7156h0.27889c0.69984 0 1.586 0.50855 2.4755 1.4206 2.1318 2.186 2.18 5.1582 0.0982 6.0669-0.533 0.23262-1.562 0.33095-2.1643 0.20667z"/>
   <path id="path4924" opacity="0.765" d="m340.92 306.81c-0.14758-0.0463-0.24107-0.14539-0.23231-0.2467 0.009-0.12631-0.0188-0.14288-0.11131-0.065-0.0938 0.0778-0.2073 0.0125-0.44799-0.26295-0.69448-0.79098-0.98554-1.866-0.98282-3.6304 0.003-1.7125 0.11506-2.4459 0.43963-2.8717 0.14164-0.18541 0.35263-0.38836 0.46909-0.4507 0.18322-0.0982 0.24388-0.075 0.44893 0.17134 0.1901 0.22855 0.21417 0.23918 0.12162 0.0541-0.0635-0.12663-0.0957-0.25045-0.0713-0.27484 0.025-0.025 0.25357 0.003 0.5098 0.06 1.2956 0.29046 2.9477 1.9802 3.4748 3.5542 0.2642 0.78935 0.24763 2.0898-0.0338 2.6155-0.27671 0.51727-0.77416 0.98604-1.2649 1.1922-0.43322 0.18197-1.9164 0.28077-2.3194 0.15445zm0.65962-2.5003c-0.0316-0.0788-0.055-0.0553-0.0597 0.0597-0.003 0.10411 0.0188 0.16227 0.0519 0.12944 0.0328-0.0328 0.0363-0.11788 0.006-0.18916z"/>
  </g>
  <g id="g29" transform="matrix(.24046 0 0 .24046 20.129 62.438)">
   <path id="path4932" opacity="0.765" fill="#f9ae54" d="m207.05 490.93c-18.385-0.11538-33.572-0.35522-33.749-0.53291-0.37998-0.38026 0.36147-0.97942 5.4195-4.3793 4.9937-3.3567 13.049-7.9332 15.762-8.9549 5.5623-2.0947 5.979-2.1366 20.924-2.1043 26.041 0.0563 46.714 2.0037 58.152 5.4778 6.3139 1.9178 24.756 9.8761 24.756 10.683 0 0.21449-40.216 0.13101-91.264-0.18947z"/>
   <path id="path4934" opacity="0.765" fill="#c6b29e" d="m256.67 469.35c-8.4458 0.0713-18.66-3.2246-32.176-7.0555-15.034-4.2613-21.988-5.6257-23.313-9.3429-0.52517-1.4726-1.6388-15.325-1.1507-15.325 0.11597 0 8.4874 2.9358 13.054 5.559 4.5667 2.6232 10.734 5.8856 13.706 7.2497 6.1423 2.8198 17.109 7.0849 22.379 8.7032 8.1279 2.4961 21.326 5.5437 21.326 5.5437 2.4518 0.57098-6.1635 4.6027-13.824 4.6673z"/>
   <path id="path6008" opacity=".36078" style="color:#000000" d="m332.93 281.67c-29.933 18.504-27.244 49.874 2.6041 65.847 19.723 6.2731 41.471 3.6034 55.802-9.6724 4.3788-4.1317 7.6877-9.5688 9.6724-15.253 7.855-45.639-51.947-49.978-68.079-40.922z" fill-rule="evenodd" fill="#fff"/>
  </g>
  <g id="g34" fill="#4b4b4b" transform="matrix(.24046 0 0 .24046 20.129 62.438)">
   <path id="path4938" opacity="0.765" d="m336.64 343.78c-5.7476-3.7697-8.8669-12.553-8.882-25.01-0.006-5.901 0.42263-9.6971 1.655-14.618 1.1448-4.5718 3.2856-8.9918 5.1757-10.686 1.9865-1.7808 4.4343-2.2305 6.5545-1.2041 3.5832 1.7346 6.898 8.3688 8.0842 16.18 0.56308 3.7076 0.56026 16.914-0.003 20.133-1.0865 6.1949-4.0389 12.051-7.3184 14.517-2.6208 1.9702-3.1974 2.0457-5.2648 0.68971zm7.6032-37.692c1.5717-1.8272-0.0528-5.8066-2.7935-6.8421-1.6079-0.6075-2.4244 0.45549-2.4244 3.1562 0 2.0373 0.3111 3.081 1.205 4.0414 0.86721 0.93174 3.0738 0.73629 4.0129-0.35547z"/>
   <path id="path5150" d="m237.46 298.66c5.0831-3.2547 8.635 4.4258 8.635 4.4258-7.9929-1.9292-6.9925 18.086-3.4261 29.254 1.1236 3.5186 6.2038 2.5387 7.3133 1.566-15.237 43.117-24.684-22.874-12.522-35.246z"/>
   <path id="path5992" d="m333.13 297.74c6.8977-11.49 11.797-0.14977 11.797-0.14977-10.833-7.363-6.8728 22.471-3.3922 32.641 1.4592 4.2636 6.5521-0.32349 7.0171-2.2249-14.478 41.905-25.73-15.326-15.422-30.267z"/>
  </g>
  <path id="path5996" style="color:#000000" fill-rule="evenodd" fill="#f7c8aa" d="m89.849 145.85c-0.57341 0.20422-0.74125 1.1719-0.53703 1.7454 0.16241 0.45601 0.73466 0.90554 1.2083 0.80555 0.5709-0.12051 1.0603-0.90592 0.9398-1.4768-0.1333-0.63151-1.0031-1.2906-1.6111-1.0741z"/>
  <path id="path6002" style="color:#000000" fill-rule="evenodd" fill="#f7c8aa" d="m86.797 165.1c0.09552 0.76301 0.62713 1.679 1.3766 1.8512 0.86904 0.19977 1.934-0.45825 2.3734-1.2342 0.30765-0.54323-1.0763 0.13292-1.6139 0.0949-0.72031-0.0509-2.2181-1.3674-2.136-0.71199z"/>
  <path id="path4173" d="m89.332 159.93c-1.6849-0.13304-2.675-0.29491-3.928-0.64216-2.0541-0.56926-3.4275-1.2554-3.4275-1.7124 0-0.10711 0.01953-0.11206 0.33319-0.0847 0.18326 0.016 0.70504 0.13949 1.1595 0.27445 1.244 0.3694 2.9769 0.80901 3.7851 0.96021 1.4628 0.27364 1.9686 0.32057 3.4653 0.32149 1.56 0.00072 2.0717-0.0541 3.2253-0.34724 0.9514-0.24171 2.4409-0.5862 2.4585-0.56861 0.0303 0.0303-1.2435 0.67373-1.8188 0.91872-1.074 0.4574-1.739 0.66529-2.559 0.79997-0.5992 0.0984-1.9526 0.13872-2.6937 0.0802z" fill="#fff"/>
 </g>
</svg>
